<svg width="61" height="60" viewBox="0 0 61 60" fill="none" xmlns="http://www.w3.org/2000/svg">
<path fill-rule="evenodd" clip-rule="evenodd" d="M5.85632 1.86115C10.001 3.65786 16.7978 3.44311 21.3628 0.0429688C27.7393 4.66001 33.8767 4.18756 39.7315 0.0429688C43.6299 2.82751 49.6441 4.01577 55.2742 1.91842L57.8031 5.39014C51.2164 14.0873 53.6511 22.4052 60.4479 29.7209L57.593 32.577C58.2379 51.3386 43.5284 55.8196 35.0795 56.2849L30.5363 59.9571L26.0293 56.3422C10.9503 55.0537 2.98689 47.194 3.47962 32.6271L0.544983 29.6994C6.27659 23.572 10.588 15.204 3.21877 5.39014L5.84907 1.86831L5.85632 1.86115Z" fill="black"/>
<path d="M5.87802 1.81803C8.05907 2.76291 10.9792 3.14946 13.9211 2.80586C16.5514 2.49806 19.189 1.60329 21.3338 0.00700926L21.3628 -0.0144653L21.3918 0.00700926C24.5728 2.31195 27.6886 3.34273 30.7464 3.28546C33.797 3.2282 36.7896 2.07573 39.7097 0.00700926L39.7387 -0.0144653L39.7677 0.00700926C41.8038 1.46012 44.4051 2.47659 47.2383 2.82018C49.8179 3.13514 52.5859 2.87745 55.2742 1.88246L55.3104 1.86814C56.1727 3.04208 57.0277 4.21603 57.8755 5.38997L57.8538 5.41861C54.7525 9.51309 53.6583 13.5217 54.0786 17.38C54.5496 21.6963 56.919 25.8338 60.4986 29.692L60.5276 29.7278L57.6581 32.6054C57.919 40.3148 55.593 45.6119 52.1656 49.2196C47.2601 54.3878 40.101 56.0628 35.1157 56.342L30.558 60.0285L26.0292 56.3993C18.4209 55.7479 12.6168 53.4215 8.79817 49.4057C5.04472 45.4616 3.21148 39.8853 3.4506 32.6555L0.501465 29.7064L0.530449 29.6706C3.39263 26.614 5.89976 22.992 6.76928 18.919C7.6388 14.846 6.87797 10.3148 3.20423 5.41861L3.18249 5.38997C4.07376 4.19455 4.96502 2.99914 5.85628 1.81087L5.89251 1.82519L5.87802 1.81803ZM13.9284 2.89892C10.9865 3.24251 8.06632 2.85597 5.87077 1.91825L3.28394 5.38281C6.95767 10.2933 7.71851 14.8388 6.84174 18.9333C5.97222 23.0135 3.47234 26.6355 0.610155 29.692L3.5303 32.6054V32.6269C3.28394 39.8352 5.11718 45.3971 8.85613 49.327C12.6603 53.3284 18.4426 55.6405 26.0365 56.2919H26.051L30.5435 59.8925L35.065 56.2346H35.0795C40.0503 55.9626 47.1876 54.2948 52.0787 49.1409C55.4843 45.5475 57.8103 40.2647 57.5422 32.5768V32.5553L60.3826 29.7135C56.8031 25.8481 54.4409 21.7107 53.9699 17.38C53.5496 13.5074 54.6438 9.48446 57.7451 5.38281L55.2597 1.96835C52.5714 2.96334 49.8034 3.21388 47.2166 2.89892C44.3834 2.55533 41.7748 1.53886 39.7315 0.0929076C36.8041 2.15447 33.8115 3.30694 30.7464 3.3642C27.6813 3.42147 24.551 2.39069 21.3628 0.0929076C19.2107 1.68919 16.5587 2.58396 13.9284 2.89176V2.89892Z" fill="black"/>
<path fill-rule="evenodd" clip-rule="evenodd" d="M6.20407 32.2477H54.7235C55.9988 45.5118 47.4702 52.6772 34.4926 53.3787L26.2466 53.4002C13.8341 52.5197 4.58821 46.0487 6.19682 32.2477H6.20407Z" fill="#004D97"/>
<path d="M27.1234 32.4052H33.9926V53.6006H27.1234V32.4052Z" fill="#A50044"/>
<path d="M13.4429 32.4052H20.3121V51.3529H13.4429V32.4052Z" fill="#A50044"/>
<path d="M15.834 50.3794H20.3121V52.3336H15.834V50.3794Z" fill="#A50044"/>
<path d="M40.7242 32.4052H47.5934V51.3529H40.7242V32.4052Z" fill="#A50044"/>
<path d="M40.7242 50.3794H45.2022V52.3336H40.7242V50.3794Z" fill="#A50044"/>
<path fill-rule="evenodd" clip-rule="evenodd" d="M30.3334 6.24196V25.068L7.16782 25.2327L9.55901 16.1704L6.58813 5.33287L21.2468 3.47174L30.3334 6.24196Z" fill="white"/>
<path fill-rule="evenodd" clip-rule="evenodd" d="M30.6667 6.24196V25.068L53.8322 25.2327L51.441 16.1704L54.4192 5.33287L39.7605 3.47174L30.6667 6.24196Z" fill="#FFED01"/>
<path d="M16.95 4.00861H23.5946V24.9535H16.95V4.00861Z" fill="#DB002F"/>
<path d="M30.3334 11.8182V18.3822H9.66772V11.8182H30.3334Z" fill="#DB002F"/>
<path d="M32.7463 5.49036H35.2027V24.8175H32.7463V5.49036Z" fill="#DB002F"/>
<path d="M37.4127 4.10883H39.8691V24.8604H37.4127V4.10883Z" fill="#DB002F"/>
<path d="M42.1009 5.27563H44.5573V24.9034H42.1009V5.27563Z" fill="#DB002F"/>
<path d="M46.7529 5.9986H49.2093V24.8891H46.7529V5.9986Z" fill="#DB002F"/>
<path fill-rule="evenodd" clip-rule="evenodd" d="M21.3265 1.53192C17.0514 4.63142 10.2836 4.95354 6.39247 3.40737L4.83458 5.38303C11.5082 14.6672 7.67502 24.0015 2.37817 29.7209L4.81284 32.2692C3.82013 46.2563 12.0878 54.3451 26.6161 55.1826L30.5507 58.4324L34.4781 55.1325C42.9342 54.9893 57.774 50.3007 56.1727 32.2549L58.6218 29.7495C52.4047 22.9349 50.2599 13.6078 56.2669 5.39019L54.8032 3.42168C49.4846 5.14681 43.4052 4.18761 39.7459 1.57487C34.2607 5.46177 27.29 5.86263 21.3048 1.53192H21.3265ZM39.8184 4.18761C43.1153 6.21338 46.7673 6.78604 53.0496 6.24201C49.9049 11.625 49.5643 18.0316 52.3468 24.2234L8.71845 24.1948C11.0662 18.6615 11.6024 12.305 7.92138 6.12032C12.4574 6.77172 16.8847 6.61424 21.3048 4.23772C27.2973 7.70944 33.4564 7.77387 39.8111 4.18761H39.8184ZM7.17504 32.4482H53.9626C55.1945 45.2399 46.9702 52.1404 34.4563 52.8204L26.5074 52.8419C14.5443 51.99 5.62439 45.7481 7.17504 32.4482Z" fill="#EDBA00"/>
<path d="M21.3265 1.58914C19.3049 3.04225 16.7398 3.88692 14.1819 4.20188C11.3198 4.55979 8.47207 4.27346 6.4142 3.45743L4.89978 5.38298C7.84891 9.49895 8.74017 13.6292 8.35613 17.4445C7.87065 22.2262 5.39251 26.5283 2.45062 29.7137L4.87079 32.2477L4.84181 32.6629C4.44328 39.4488 6.25478 44.8103 9.92127 48.6042C13.5878 52.398 19.1165 54.6171 26.1451 55.1038L26.6379 55.1325L30.558 58.368L34.4708 55.0823H34.4853C35.0505 55.0752 35.6519 55.0394 36.2751 54.9893C40.3763 54.6314 45.4413 53.2642 49.4411 50.0859C53.4409 46.9148 56.3828 41.9399 56.2524 34.388C56.2379 33.7008 56.2016 32.985 56.1364 32.2477V32.2262L58.5711 29.7352C55.3176 26.1561 53.1873 21.8898 52.7525 17.4589C52.3613 13.4431 53.3757 9.2842 56.2234 5.38298L54.8032 3.47175C52.2091 4.30926 49.4339 4.50968 46.8543 4.19472C44.1443 3.86545 41.6444 2.96351 39.7677 1.63209C36.949 3.61491 33.7462 4.68864 30.4927 4.68148C27.3914 4.67432 24.2467 3.69365 21.3265 1.58914ZM14.1674 4.11598C16.7253 3.79386 19.2904 2.95636 21.2975 1.49608L21.3265 1.47461L21.3555 1.49608C24.2612 3.60059 27.3987 4.58127 30.4927 4.58842C33.739 4.59558 36.9345 3.52185 39.7459 1.53903L39.7749 1.51756L39.8039 1.53903C41.6661 2.87046 44.166 3.77239 46.876 4.10167C49.4628 4.41663 52.2308 4.2162 54.8177 3.37153L54.8466 3.36437C55.3466 4.03724 55.8466 4.71011 56.3466 5.38298L56.3248 5.41162C53.4771 9.30568 52.4627 13.4503 52.854 17.4517C53.2815 21.8826 55.4191 26.1418 58.6725 29.7065L58.7015 29.7352L56.2379 32.262C56.3031 32.9921 56.3393 33.7008 56.3538 34.388C56.4842 41.9757 53.5279 46.9721 49.5063 50.1575C45.4848 53.3429 40.4053 54.7244 36.2896 55.0823C35.6737 55.1325 35.0795 55.1682 34.5143 55.1754L30.5652 58.4896L26.6089 55.2255L26.1451 55.1969C19.0875 54.7101 13.537 52.4839 9.85606 48.6686C6.17508 44.8604 4.35632 39.4703 4.75486 32.6557L4.77659 32.2835L2.32019 29.7209L2.34917 29.6922C5.29106 26.514 7.77645 22.2262 8.26193 17.4445C8.64597 13.6364 7.75471 9.52042 4.79833 5.41162L4.77659 5.38298L6.37797 3.35006L6.4142 3.36437C8.45758 4.18041 11.3053 4.47389 14.1674 4.11598ZM39.8401 4.15177C41.485 5.16108 43.2168 5.80532 45.3181 6.1346C47.4267 6.46387 49.9049 6.47103 53.0424 6.19902L53.1293 6.19186L53.0859 6.2706C51.5062 8.9764 50.6295 11.9399 50.5135 15.0036C50.3976 18.0244 51.0062 21.1453 52.3902 24.209L52.4192 24.2735C37.833 24.252 23.2395 24.2448 8.64597 24.2448L8.67496 24.1804C9.92127 21.2384 10.6604 18.053 10.5154 14.7889C10.3923 11.9399 9.5952 9.01935 7.88514 6.14175L7.83442 6.05586L7.92862 6.07017C10.1894 6.39229 12.4284 6.52114 14.6529 6.26344C16.8702 6.01291 19.0803 5.37583 21.283 4.19472L21.3048 4.18041L21.3265 4.19472C24.3119 5.92701 27.348 6.80747 30.4203 6.81462C33.4926 6.81462 36.6156 5.93417 39.7894 4.14462L39.8111 4.1303L39.8329 4.14462L39.8401 4.15177ZM45.3036 6.22765C43.195 5.89838 41.4632 5.25414 39.8111 4.24483C36.6374 6.03438 33.5071 6.91484 30.4203 6.91484C27.3335 6.91484 24.2974 6.03438 21.3048 4.3021C19.0947 5.4832 16.8847 6.11312 14.6674 6.37082C12.4646 6.62135 10.2546 6.50682 8.01557 6.19186C9.70389 9.05514 10.4865 11.9542 10.6096 14.796C10.7546 18.053 10.0227 21.2241 8.79089 24.1589L52.2743 24.1876C50.912 21.131 50.3034 18.0244 50.4193 15.0108C50.5353 11.9614 51.3975 9.00503 52.9627 6.31355C49.8614 6.5784 47.3977 6.56409 45.3036 6.24197V6.22765ZM7.16778 32.4052H53.9916L53.9989 32.4481C54.0351 32.8132 54.0641 33.1783 54.0786 33.5362C54.4046 39.3629 52.6946 43.9084 49.4701 47.1296C46.2529 50.3508 41.5284 52.2405 35.8258 52.7774C35.3693 52.8204 34.9056 52.8561 34.4418 52.8776C31.7898 52.8776 29.1377 52.8991 26.4857 52.8991C25.964 52.8633 25.4423 52.8132 24.9278 52.7559C19.5078 52.1403 14.8051 50.3508 11.5734 47.2155C8.33439 44.0802 6.56636 39.5992 7.00112 33.6149C7.03011 33.2355 7.06634 32.849 7.10981 32.4553L7.11706 32.4123H7.16054L7.16778 32.4052ZM53.9119 32.4982H7.21126C7.16778 32.8776 7.13155 33.2427 7.10981 33.6149C6.67505 39.5705 8.43584 44.0301 11.6531 47.1439C14.8703 50.2649 19.5512 52.0473 24.9568 52.6629C25.4712 52.7201 25.9857 52.7702 26.5147 52.806L34.4563 52.7846C34.9201 52.7559 35.3838 52.7273 35.8331 52.6843C41.514 52.1546 46.2166 50.2649 49.4194 47.0652C52.6221 43.8654 54.3249 39.3486 53.9989 33.5433C53.9771 33.1997 53.9554 32.8561 53.9192 32.5054L53.9119 32.4982Z" fill="#DDB305"/>
<path d="M8.01557 6.11316C9.74737 9.01939 10.5517 11.9686 10.6749 14.8533C10.8198 18.1532 10.0807 21.3601 8.81988 24.3308L8.51554 24.2091C9.76186 21.2814 10.4937 18.1103 10.3488 14.8676C10.2256 12.033 9.43579 9.13392 7.73297 6.2778L8.01557 6.11316Z" fill="black"/>
<path d="M8.66772 24.1088L52.2961 24.1303V24.4596L8.66772 24.4309V24.1088Z" fill="black"/>
<path d="M52.1439 24.3593C50.7527 21.267 50.1295 18.1174 50.2527 15.0608C50.3686 12.0616 51.1947 9.16249 52.7019 6.49964C49.6948 6.74302 47.2963 6.72871 45.2385 6.40659C43.1371 6.07731 41.4053 5.44023 39.7605 4.44524C36.5867 6.22047 33.4564 7.09377 30.3769 7.09377C27.29 7.09377 24.2467 6.21332 21.2541 4.49535C19.0513 5.66213 16.8485 6.29206 14.6312 6.54259C12.3922 6.80029 10.1387 6.6786 7.8562 6.34932L7.89968 6.0272C10.1532 6.34932 12.3777 6.47101 14.595 6.22047C16.7978 5.96994 18.9933 5.34002 21.1816 4.16607L21.2614 4.12312L21.3411 4.17323C24.3119 5.89836 27.3263 6.77166 30.3769 6.77166C33.4347 6.77166 36.536 5.89836 39.688 4.11596L39.775 4.06586L39.8619 4.11596C41.4923 5.11811 43.2096 5.76235 45.2964 6.08447C47.3905 6.41375 49.8614 6.4209 52.9917 6.14889L53.3105 6.12026L53.1511 6.39227C51.5787 9.08375 50.7092 12.0258 50.5933 15.0752C50.4773 18.0744 51.086 21.1811 52.4555 24.2233L52.1512 24.3593H52.1439Z" fill="black"/>
<path d="M7.16785 32.2906H53.9554V32.6199H7.16785V32.2906Z" fill="black"/>
<path d="M54.1148 32.441C54.151 32.8132 54.18 33.1711 54.1945 33.529C54.5206 39.3916 52.796 43.9657 49.5571 47.2083C46.3181 50.4438 41.5719 52.3551 35.8403 52.8919C35.3838 52.9349 34.9201 52.9707 34.4563 52.9922L34.4346 52.67C34.8983 52.6414 35.3621 52.6128 35.8113 52.5698C41.4632 52.0401 46.1369 50.1647 49.3179 46.9864C52.4917 43.8082 54.1873 39.32 53.8612 33.5505C53.8395 33.1926 53.8105 32.8347 53.7815 32.4768L54.1076 32.4481L54.1148 32.441Z" fill="black"/>
<path d="M34.4491 52.9922L26.5074 53.0136V52.6915L34.4491 52.67V52.9922Z" fill="black"/>
<path d="M26.493 53.0137C25.964 52.9779 25.4423 52.9278 24.9278 52.8705C19.4788 52.2549 14.7544 50.451 11.5009 47.2943C8.24023 44.1375 6.45771 39.6278 6.89247 33.6006C6.92145 33.2212 6.95768 32.8275 7.00116 32.4338L7.32723 32.4696C7.28375 32.8562 7.24752 33.2427 7.21854 33.6221C6.79103 39.5419 8.53007 43.9657 11.7256 47.058C14.9211 50.1575 19.5803 51.9328 24.9568 52.5412C25.4713 52.5985 25.9858 52.6486 26.5075 52.6844L26.4857 53.0065L26.493 53.0137Z" fill="black"/>
<path d="M30.6815 6.84326V24.3021H30.3478V6.84326H30.6815Z" fill="black"/>
<path d="M36.9707 42.4195C36.9707 45.8913 34.123 48.7044 30.6159 48.7044C27.1016 48.7044 24.2539 45.8913 24.2539 42.4267C24.2539 42.4267 24.2539 42.4267 24.2539 42.4195C24.2539 38.9478 27.1016 36.1346 30.6087 36.1346C34.123 36.1346 36.9707 38.9478 36.9707 42.4124C36.9707 42.4124 36.9707 42.4124 36.9707 42.4195Z" fill="#EDBA00"/>
<path d="M37.1374 42.4195C37.1374 44.2019 36.4055 45.8125 35.2244 46.9793C34.0433 48.1461 32.4129 48.8691 30.6087 48.8691C28.8044 48.8691 27.1741 48.1461 25.993 46.9793C24.8119 45.8125 24.08 44.2019 24.08 42.4195V42.4124C24.08 40.63 24.8119 39.0194 25.993 37.8526C27.1741 36.6858 28.8044 35.9628 30.6087 35.9628C32.4129 35.9628 34.0433 36.6858 35.2244 37.8526C36.4055 39.0194 37.1374 40.63 37.1374 42.4124V42.4195ZM34.9925 46.7502C36.1157 45.6407 36.804 44.1089 36.804 42.4195V42.4124C36.804 40.723 36.1084 39.1912 34.9853 38.0888C33.8622 36.9793 32.3115 36.2993 30.6014 36.2993C28.8914 36.2993 27.3407 36.9865 26.2248 38.096C25.1017 39.2055 24.4133 40.7373 24.4133 42.4267V42.4338C24.4133 44.1232 25.109 45.655 26.2321 46.7574C27.3552 47.8669 28.9059 48.5469 30.6159 48.5469C32.326 48.5469 33.8766 47.8598 34.9925 46.7502Z" fill="black"/>
<path d="M27.0799 37.3443C26.7103 38.6686 26.4132 39.9786 26.4712 41.1096C26.5292 42.2119 26.9277 43.1496 27.9494 43.7509C28.0364 43.801 28.1233 43.844 28.203 43.8726C28.6523 44.0516 29.0508 43.9585 29.3841 43.7366C29.7319 43.5076 30.0145 43.1425 30.2247 42.8061C30.3623 42.577 30.4638 42.3622 30.529 42.2048L30.7971 42.3121C30.7319 42.4839 30.6159 42.713 30.471 42.9564C30.2464 43.3286 29.9348 43.7223 29.5435 43.98C29.1378 44.2449 28.6523 44.3594 28.0943 44.1446C28.0001 44.1088 27.8987 44.0587 27.7972 44.0015C26.6813 43.3429 26.2393 42.3265 26.1741 41.131C26.1162 39.9642 26.4132 38.6185 26.79 37.2728L27.0654 37.3443H27.0799Z" fill="black"/>
<path d="M24.7177 44.8175C25.3264 44.7889 25.7901 44.7531 26.1886 44.5813C26.5872 44.4095 26.9277 44.0945 27.3118 43.5219L27.5509 43.6793C27.1306 44.3093 26.7466 44.6528 26.3046 44.8461C25.8626 45.0394 25.3698 45.0823 24.7249 45.111L24.7104 44.8246L24.7177 44.8175Z" fill="black"/>
<path d="M30.5363 42.1833C30.7899 42.033 31.0363 41.9184 31.2754 41.854C31.6522 41.7538 32.0072 41.7681 32.3333 41.9041C32.6594 42.0401 32.9492 42.2978 33.1883 42.6772C33.3477 42.9349 33.4854 43.2498 33.6014 43.6364C34.2028 43.4503 34.7825 43.572 35.2679 43.8511C35.7462 44.1303 36.123 44.5741 36.3041 45.0322C36.3186 45.0752 36.3403 45.1181 36.3548 45.1682L36.0795 45.2541C36.065 45.2183 36.0505 45.1754 36.036 45.1396C35.8694 44.7316 35.536 44.345 35.1158 44.0945C34.6955 43.8511 34.1955 43.7438 33.6738 43.9084C33.6376 43.9227 33.5941 43.937 33.5579 43.9513L33.4057 44.0086L33.3622 43.8511C33.2463 43.4288 33.1014 43.0924 32.9347 42.8204C32.7246 42.4839 32.4855 42.2692 32.2174 42.1546C31.9493 42.0473 31.6594 42.033 31.3406 42.1189C31.1305 42.1761 30.9058 42.2763 30.674 42.4123L30.5218 42.169L30.5363 42.1833Z" fill="black"/>
<path d="M33.6738 43.8798C33.1955 45.0251 32.326 45.8554 31.1377 46.4496C29.9638 47.0365 28.4784 47.3801 26.7466 47.5519L26.7176 47.2656C28.4132 47.101 29.8696 46.7645 31.0072 46.1919C32.1304 45.6335 32.9564 44.8461 33.4057 43.7724L33.6738 43.8798Z" fill="black"/>
<path d="M30.5218 42.4982L30.3696 42.3622C29.5726 41.6607 28.6016 40.8017 30.2102 38.8404C29.8696 38.3894 29.6523 37.9384 29.6305 37.4875C29.6088 37.0007 29.8117 36.5211 30.3261 36.063L30.5218 36.2777C30.0798 36.6714 29.8986 37.0723 29.9204 37.4732C29.9421 37.8883 30.1595 38.3178 30.5145 38.7545L30.587 38.8475L30.5145 38.9334C28.9856 40.7444 29.8624 41.5247 30.5725 42.1475L30.7319 42.2835L30.5363 42.491L30.5218 42.4982Z" fill="black"/>
<path d="M36.8113 42.8705C36.1736 41.7609 35.0578 40.4009 33.7027 39.5777C32.7028 38.9692 31.5724 38.6543 30.4203 38.9549L30.3478 38.6758C31.5869 38.3536 32.7898 38.6829 33.8549 39.3343C35.2534 40.1861 36.4055 41.582 37.0649 42.7273L36.8113 42.8705Z" fill="black"/>
<path d="M21.7178 25.3472V25.3758H20.5585V27.5877V28.8475V31.3099H21.8048V28.8475H23.5873V27.5877H21.8048V26.6285H24.8843V25.3472H21.7178Z" fill="black"/>
<path fill-rule="evenodd" clip-rule="evenodd" d="M31.1667 27.2084L32.2898 26.6286C31.5725 25.0681 28.674 24.6243 27.7176 26.6286C26.7321 29.0194 27.7828 31.2456 29.6885 31.4603C30.8986 31.6321 31.8551 31.0523 32.2681 30.0072L31.1594 29.3773C30.8623 30.1003 29.7392 30.6014 28.8842 29.3916C28.6233 28.8476 28.5509 28.0172 28.848 27.2012C29.5508 26.2492 30.5798 26.3494 31.1739 27.2012L31.1667 27.2084Z" fill="black"/>
<path d="M31.1811 27.151L32.2246 26.6142C32.0072 26.1704 31.6159 25.8268 31.1377 25.6049C30.7898 25.4474 30.4058 25.3543 30.0145 25.34C29.6232 25.3257 29.232 25.3973 28.8769 25.5548C28.4204 25.7623 28.0219 26.1203 27.761 26.6571C27.5799 27.1009 27.4639 27.5376 27.4132 27.9599C27.3262 28.733 27.4494 29.4488 27.7393 30.0215C28.0291 30.5941 28.4784 31.0379 29.0508 31.267C29.2464 31.3457 29.4638 31.403 29.6885 31.4245C30.2754 31.5104 30.8043 31.4102 31.2319 31.1668C31.6594 30.9234 31.9999 30.5369 32.2028 30.0358L31.1739 29.456C31.0797 29.6564 30.9275 29.8354 30.7391 29.9642C30.587 30.0716 30.4058 30.1432 30.2174 30.1718C30.029 30.2004 29.8261 30.179 29.616 30.1002C29.3479 29.9928 29.0798 29.7853 28.8262 29.4345L28.8189 29.4273C28.6813 29.141 28.5943 28.7688 28.5871 28.3608C28.5798 27.9957 28.6378 27.5948 28.7827 27.2011L28.7899 27.1868C28.9349 26.9936 29.087 26.8432 29.2537 26.7287C29.5001 26.5569 29.7682 26.4853 30.029 26.4853C30.2899 26.4925 30.5435 26.5784 30.7754 26.743C30.9203 26.8504 31.058 26.9864 31.1739 27.1439L31.1811 27.151ZM32.3115 26.6714L31.1522 27.2656L31.1304 27.2298C31.0145 27.058 30.8768 26.922 30.7246 26.8146C30.5145 26.6643 30.2754 26.5784 30.0363 26.5712C29.7971 26.5641 29.5508 26.6356 29.3189 26.7931C29.1667 26.9005 29.0146 27.0437 28.8841 27.2226C28.7465 27.602 28.6885 27.9885 28.6957 28.3393C28.703 28.733 28.7827 29.0837 28.9204 29.3629C29.1522 29.6922 29.4131 29.8926 29.6595 29.9928C29.8479 30.0716 30.0363 30.0859 30.2102 30.0644C30.3841 30.0429 30.5507 29.9714 30.6884 29.8711C30.8768 29.7423 31.029 29.5562 31.1087 29.3558L31.1304 29.3057L32.3188 29.9785L32.3043 30.0143C32.0941 30.5512 31.7391 30.9735 31.2753 31.2312C30.8261 31.4817 30.2826 31.582 29.674 31.4961C29.4421 31.4674 29.2175 31.4102 29.0146 31.3314C28.4204 31.0952 27.9494 30.6371 27.6523 30.0429C27.3552 29.4488 27.2248 28.7187 27.319 27.9241C27.3697 27.4946 27.4857 27.0508 27.6668 26.5927C27.9349 26.0344 28.3479 25.6621 28.8262 25.4474C29.1957 25.2827 29.6015 25.2112 30.0073 25.2255C30.4131 25.2398 30.8116 25.3329 31.1666 25.5046C31.6739 25.7409 32.0941 26.1203 32.3188 26.5999L32.3405 26.6428L32.3043 26.6643L32.3115 26.6714Z" fill="black"/>
<path fill-rule="evenodd" clip-rule="evenodd" d="M35.449 25.3687L35.4708 31.3601L38.775 31.3457C39.8474 31.1954 41.2603 29.4631 39.6083 28.1102C40.4778 27.3515 40.3691 25.7266 38.6228 25.383L35.449 25.3687ZM36.7171 26.5498H38.3619C39.0865 26.7573 38.8692 27.4445 38.3837 27.5591H36.7171V26.5498ZM36.7316 28.7258L38.4634 28.7473C39.3184 28.9979 39.1228 29.9642 38.4924 30.1289L36.7533 30.1145L36.7388 28.7258H36.7316Z" fill="black"/>
<path d="M35.4998 25.4116L35.5215 31.31L38.775 31.2957C39.1518 31.2456 39.572 30.9879 39.8764 30.6228C40.0285 30.4439 40.1517 30.2291 40.2314 30.0072C40.3111 29.7853 40.3401 29.5419 40.3039 29.2985C40.2459 28.912 40.0285 28.5111 39.5793 28.1461L39.5358 28.1103L39.5793 28.0745C39.8329 27.8526 40.0068 27.5519 40.0648 27.237C40.1083 27.0294 40.101 26.8075 40.0503 26.5999C39.9996 26.3923 39.8909 26.1919 39.7387 26.0129C39.4996 25.7409 39.13 25.5333 38.6228 25.426L35.4998 25.4116ZM35.4273 31.3529L35.4056 25.3114C36.1447 25.3114 38.0286 25.2255 38.6373 25.3257C39.1735 25.4331 39.5576 25.655 39.8112 25.9413C39.9778 26.1275 40.0865 26.3422 40.1445 26.5713C40.2024 26.7932 40.2024 27.0294 40.159 27.2513C40.0938 27.5734 39.9271 27.8741 39.6807 28.1031C40.1227 28.4825 40.3401 28.8905 40.3981 29.2842C40.4343 29.5419 40.4053 29.7996 40.3184 30.0358C40.2387 30.2721 40.1083 30.494 39.9488 30.6801C39.6228 31.0666 39.1808 31.3315 38.7822 31.3887C37.8475 31.4746 36.42 31.403 35.4273 31.403V31.3529ZM36.7171 26.4925C36.949 26.4925 38.2678 26.4639 38.3764 26.4925C38.5866 26.5498 38.7243 26.65 38.804 26.7717C38.8619 26.8576 38.8837 26.9578 38.8837 27.058C38.8764 27.1511 38.8474 27.2441 38.7895 27.33C38.7025 27.4589 38.5721 27.5591 38.4054 27.5949C38.2243 27.6378 36.9707 27.5949 36.6809 27.5949V26.4925H36.7316H36.7171ZM38.3547 26.5856H36.7606V27.5018H38.3764C38.5141 27.466 38.6301 27.3801 38.7025 27.2728C38.746 27.2012 38.775 27.1224 38.7822 27.0437C38.7895 26.965 38.7677 26.8862 38.7243 26.8146C38.659 26.7144 38.5431 26.6285 38.362 26.5784L38.3547 26.5856ZM36.7316 28.6686C36.978 28.6686 38.3547 28.6615 38.4706 28.6901C38.717 28.7617 38.8764 28.8905 38.9706 29.0408C39.0503 29.1625 39.0793 29.2985 39.0721 29.4345C39.0648 29.5706 39.0213 29.7066 38.9489 29.8211C38.8474 29.9786 38.688 30.1074 38.4851 30.1575C38.3257 30.1933 36.9635 30.1504 36.6809 30.1432L36.6664 28.6615H36.7171L36.7316 28.6686ZM38.4562 28.7832L36.7823 28.7617L36.7968 30.0573L38.4851 30.0716C38.659 30.0287 38.7967 29.9141 38.8837 29.7781C38.9489 29.6779 38.9851 29.5562 38.9924 29.4417C38.9996 29.3272 38.9706 29.2055 38.9054 29.0981C38.8257 28.9693 38.6808 28.8547 38.4634 28.7903L38.4562 28.7832Z" fill="black"/>
</svg>
