<svg width="61" height="60" viewBox="0 0 61 60" fill="none" xmlns="http://www.w3.org/2000/svg">
<path d="M1.8894 29.9966C1.8894 14.1966 14.6967 1.38933 30.4967 1.38933C46.2957 1.38933 59.103 14.1966 59.103 29.9966C59.103 45.7966 46.2957 58.6039 30.4967 58.6039C14.6967 58.6039 1.8894 45.7966 1.8894 29.9966Z" fill="#2E6ABD" stroke="#2E6ABD" stroke-width="0.642708"/>
<path d="M3.13629 29.9665C3.13629 14.8613 15.3821 2.61542 30.4884 2.61542C45.5946 2.61542 57.8394 14.8613 57.8394 29.9665C57.8394 45.0727 45.5946 57.3186 30.4884 57.3186C15.3821 57.3186 3.13629 45.0727 3.13629 29.9665Z" fill="white" stroke="white" stroke-width="0.514583"/>
<path d="M30.4743 3.72424C15.9785 3.72424 4.25037 15.4795 4.25037 29.9742C4.25037 44.4711 15.9785 56.1982 30.4743 56.1982C44.9702 56.1982 56.7243 44.4711 56.7243 29.9742C56.7243 15.4795 44.9702 3.72424 30.4743 3.72424ZM32.2712 5.41695L34.2764 5.72945L34.8754 7.52633C34.9795 7.84716 35.0514 8.1732 35.0837 8.48987L35.1097 8.51591C35.2233 8.25862 35.5254 7.79404 35.6566 7.60445L36.7243 6.12008L38.6514 6.43258L35.6827 10.0784L35.3181 12.4482L33.5472 12.1617L33.9379 9.79195L32.2712 5.41695ZM28.8337 5.5732L31.8285 11.719L29.9535 11.9274L29.4327 10.6513L27.0368 10.9378L26.7504 12.292L25.0056 12.5003L26.5941 5.83362L28.8337 5.5732ZM27.792 7.00549C27.7702 7.36591 27.6941 7.79299 27.6358 8.0732L27.3233 9.6357L28.8858 9.45341L28.2087 7.99508C28.0379 7.6232 27.9087 7.24403 27.8441 7.00549H27.792ZM40.24 7.1357L44.2243 9.21904L43.5993 10.3909L41.1514 9.11487L40.6045 10.1826L42.8962 11.3805L42.2712 12.5524L39.9795 11.3545L39.3806 12.4742L41.9066 13.8024L41.3077 14.9742L37.2452 12.8388L40.24 7.1357ZM20.6306 7.55237C21.1664 7.48375 21.7472 7.62893 22.141 8.33362C22.7306 9.3857 22.0733 9.97945 21.8285 10.2086L21.8545 10.2607C22.3566 10.0617 23.2191 9.9107 23.8077 10.9638C24.6545 12.4763 23.0389 13.3961 22.4535 13.7242L20.1358 15.0263L16.9847 9.37529L19.3545 8.04716C19.5998 7.90966 20.0948 7.62099 20.6306 7.55237ZM20.3702 9.03674C20.3135 9.03422 20.2535 9.04302 20.1879 9.06279C20.1004 9.08914 20.0082 9.13336 19.9014 9.19299L19.0681 9.66174L19.6931 10.7555L20.5004 10.2867C20.8889 10.0701 21.0243 9.78258 20.8129 9.40133C20.6758 9.15641 20.54 9.0443 20.3702 9.03674ZM46.9847 11.1982L48.99 13.3857C49.3212 13.7451 50.467 14.9576 49.1202 16.1982C48.5254 16.7461 47.8504 16.9607 47.0889 16.6149L45.9691 19.6097L44.641 18.1513L45.7347 15.7034L45.266 15.2086L43.4431 16.8753L42.2452 15.5732L46.9847 11.1982ZM21.7504 11.2242C21.5763 11.2008 21.3811 11.2518 21.1514 11.3805L20.3181 11.8492L20.9952 13.0732L21.9066 12.5784C22.3025 12.3565 22.4275 11.9607 22.2191 11.5888C22.0837 11.3477 21.9245 11.2477 21.7504 11.2242ZM47.2452 13.3336L46.2035 14.2972L46.8285 14.9742C46.9816 15.142 47.3545 15.5492 47.8962 15.0524C48.1691 14.7992 48.2629 14.4378 47.8702 14.0107L47.2452 13.3336ZM30.4743 13.542C39.54 13.542 46.9066 20.9086 46.9066 29.9742C46.9066 39.0409 39.54 46.3805 30.4743 46.3805C21.4087 46.3805 14.0681 39.0409 14.0681 29.9742C14.0681 20.9086 21.4087 13.542 30.4743 13.542ZM12.3493 14.0367C12.7464 14.0066 13.1255 14.0909 13.4431 14.219L12.8441 15.7555C12.5399 15.6263 11.916 15.4201 11.4899 16.094C11.2337 16.5003 11.1056 17.3295 12.5316 18.2295C13.4295 18.7961 14.4368 19.167 14.9795 18.3076C15.367 17.694 14.9545 17.1649 14.667 16.8232L15.8389 15.6513C16.7754 16.6503 16.9264 17.7055 16.1514 18.9326C15.2743 20.3211 13.7024 21.1492 11.5941 19.818C9.48474 18.4857 9.63057 16.6086 10.4483 15.3128C11.0017 14.4358 11.6876 14.087 12.3493 14.0367ZM52.5577 18.5159L53.2347 20.6253L50.7347 23.0992C50.4243 23.4086 50.0243 23.7597 49.5889 24.0628L49.615 24.1409C49.8827 23.9972 50.3212 23.8315 50.891 23.6461L53.8858 22.6565L54.4066 24.2451L48.2608 26.2242L47.5577 24.1149L50.1879 21.5107C50.5702 21.1305 51.0254 20.7815 51.2295 20.6774L51.2035 20.6253C50.8889 20.7451 50.6285 20.8732 50.266 20.9899L46.9066 22.0576L46.4118 20.4951L52.5577 18.5159ZM8.07849 19.9742L9.32849 20.443L8.41703 22.9951L9.69307 23.4638L10.5785 20.9638L11.8285 21.4065L10.9431 23.9065L13.2347 24.7399L12.6358 26.4065L6.56807 24.219L8.07849 19.9742ZM12.8702 35.1565L14.1202 37.5263L11.6722 39.8961C11.5368 40.0284 11.1618 40.3305 10.8649 40.5472L10.891 40.5992C11.1847 40.4961 11.7472 40.3576 12.0108 40.3128L15.266 39.7399L16.4639 42.0576L10.7347 45.0263L9.95349 43.5159L13.2347 41.7972C13.6608 41.5742 14.3202 41.2836 14.5629 41.1982L14.5108 41.094C14.265 41.1711 13.4785 41.3472 13.0004 41.4326L9.22432 42.1357L8.62537 40.9899L11.6202 38.0211C11.9108 37.7367 12.3212 37.3972 12.5056 37.2399L12.4535 37.1617C12.2441 37.2899 11.5139 37.7263 11.0472 37.969L7.92224 39.6097L7.14099 38.1513L12.8702 35.1565ZM48.391 35.2086L54.0681 38.3076L53.0004 40.2607L49.3285 40.1565C48.79 40.143 48.217 40.0524 48.0004 39.9742L47.9743 40.0263C48.2775 40.169 48.5514 40.2617 48.8858 40.443L51.9847 42.1357L51.2035 43.594L45.5264 40.5211L46.5941 38.568L50.1097 38.6722C50.5472 38.6826 51.0743 38.7222 51.5941 38.8284L51.6202 38.7503C51.3306 38.6555 50.9233 38.4617 50.3962 38.1774L47.6097 36.667L48.391 35.2086ZM44.7712 41.5367L45.6566 42.5003L43.6514 44.3753L44.4587 45.2347L46.3597 43.4899L47.2452 44.4534L45.3702 46.2242L46.2295 47.1617L48.3129 45.2347L49.2243 46.1982L45.865 49.3232L41.4639 44.5836L44.7712 41.5367ZM17.1931 42.8128L18.5993 43.8805L16.0993 47.1097C15.6827 47.6461 15.565 48.2149 16.1514 48.6722C16.7827 49.1617 17.3129 48.8742 17.7139 48.3597L20.2139 45.1565L21.5681 46.1982L19.0681 49.4013C18.0775 50.6774 16.741 50.7992 15.3441 49.7138C14.1702 48.8013 13.5452 47.5263 14.7191 46.0159L17.1931 42.8128ZM18.99 44.167L19.8754 44.8701L18.2868 45.9638L18.99 44.167ZM40.3441 45.1826L43.391 50.8597L41.8285 51.719L40.5264 49.3232L38.6514 50.3128L39.9275 52.7086L38.365 53.542L35.3181 47.8649L36.8806 47.0315L38.0264 49.1409L39.9014 48.1513L38.7816 46.0159L40.3441 45.1826ZM22.8441 46.7451L24.9535 47.3961L25.5264 50.8857C25.6004 51.318 25.6618 51.8388 25.6566 52.3701L25.7347 52.3961C25.7722 52.094 25.8952 51.6388 26.0733 51.068L27.0108 48.0472L28.5733 48.542L26.6462 54.6878L24.5368 54.0367L23.9118 50.3909C23.8222 49.8597 23.8264 49.2909 23.8597 49.0628L23.7816 49.0367C23.6983 49.3628 23.6608 49.6638 23.5472 50.0263L22.4795 53.3857L20.917 52.8909L22.8441 46.7451ZM32.4535 48.0472C33.7206 47.972 34.4782 48.7206 34.7972 49.4534L33.2868 50.1305C33.1587 49.8253 32.866 49.2451 32.0889 49.4274C31.6222 49.5378 30.9743 50.0253 31.3597 51.667C31.6035 52.6992 32.0379 53.6711 33.0264 53.4378C33.7327 53.2732 33.7983 52.6076 33.8337 52.1617H35.5004C35.4681 53.5284 34.8556 54.3826 33.4431 54.7138C31.8452 55.0899 30.1077 54.5867 29.5368 52.1617C28.966 49.7336 30.3889 48.4763 31.8806 48.1253C32.0824 48.0778 32.2725 48.0579 32.4535 48.0472Z" fill="#ED1248"/>
<path d="M30.4483 14.818C24.5222 14.818 19.391 18.2159 16.9066 23.1774L19.1722 27.0576L19.7712 20.0003L23.1306 25.7555L23.7035 18.7242L27.0889 24.4795L27.6878 17.4482L31.0472 23.2034L31.6462 16.1461L35.0056 21.9274L35.5264 15.6774C33.9399 15.1138 32.2285 14.818 30.4483 14.818ZM35.0056 21.9274L34.4066 28.9847L37.766 34.7138L38.3389 27.6826L35.0056 21.9274ZM34.4066 28.9847L31.0472 23.2295L30.4483 30.2607L27.0889 24.5055L26.4899 31.5367L23.1306 25.8076L22.5316 32.8388L25.891 38.594L26.4639 31.5367L29.8493 37.318L30.4483 30.2867L33.8076 36.0159L34.4066 28.9847ZM29.8493 37.318L29.2503 44.3753L25.891 38.6201L25.4222 44.219C26.9972 44.7732 28.6837 45.0784 30.4483 45.0784C36.2399 45.0784 41.2649 41.8357 43.8076 37.0576L41.7243 33.4378L41.1253 40.4951L37.766 34.7399L37.167 41.7972L33.8076 36.042L33.2087 43.0992L29.8493 37.318ZM41.7243 33.4378L42.2972 26.3805L38.9639 20.6513L38.3649 27.6826L41.7243 33.4378ZM22.5316 32.8388L19.1722 27.0836L18.5993 34.1409L21.9326 39.8701L22.5316 32.8388ZM36.2295 15.9638L38.9639 20.6253L39.1983 17.6045C38.2774 16.9503 37.2878 16.4013 36.2295 15.9638ZM42.766 21.1461L42.3233 26.4065L45.4743 31.7972C45.5483 31.1899 45.5785 30.5742 45.5785 29.9482C45.5785 26.668 44.5389 23.6253 42.766 21.1461ZM15.3701 28.6201C15.3326 29.0545 15.3181 29.5034 15.3181 29.9482C15.3181 33.2503 16.3868 36.3149 18.1826 38.8024L18.5733 34.1149L15.3701 28.6201ZM21.9326 39.8961L21.7243 42.318C22.4826 42.8534 23.2941 43.3065 24.1462 43.6982L21.9326 39.8961Z" fill="#2E6ABD"/>
</svg>
