<svg width="61" height="60" viewBox="0 0 61 60" fill="none" xmlns="http://www.w3.org/2000/svg">
<g clip-path="url(#clip0_8_542)">
<path d="M30.4905 0C13.9499 0 0.5 13.469 0.5 29.9905C0.5 46.531 13.969 59.9809 30.4905 59.9809C47.031 59.9809 60.4809 46.5119 60.4809 29.9905C60.4618 13.4499 47.0119 0 30.4905 0Z" fill="#00285D"/>
<path d="M57.3522 29.9905C57.3522 15.1479 45.3331 3.12878 30.4714 3.12878C15.6288 3.12878 3.59064 15.1479 3.59064 29.9905C3.59064 44.8331 15.6288 56.8712 30.4714 56.8712C45.3331 56.8522 57.3522 44.8331 57.3522 29.9905Z" fill="white"/>
<path d="M47.6033 29.9905C47.6033 20.5469 39.934 12.8776 30.4904 12.8776C21.0469 12.8776 13.3776 20.5469 13.3776 29.9905C13.3776 39.434 21.0469 47.1034 30.4904 47.1034C39.934 47.1034 47.6033 39.434 47.6033 29.9905Z" fill="#6BACDF"/>
<path d="M30.4904 48.4579C20.3028 48.4579 12.0421 40.159 12.0421 29.9905C12.0421 19.8029 20.3219 11.5421 30.4904 11.5421C40.678 11.5421 48.9579 19.822 48.9579 29.9905C48.9388 40.1781 40.659 48.4579 30.4904 48.4579ZM30.4904 12.5724C20.8752 12.5724 13.0532 20.3943 13.0532 30.0096C13.0532 39.6248 20.8752 47.4468 30.4904 47.4468C40.1057 47.4468 47.9277 39.6248 47.9277 30.0096C47.9277 20.3943 40.1057 12.5724 30.4904 12.5724Z" fill="#00285D"/>
<path d="M30.4905 58.7599C14.6367 58.7599 1.72101 45.8633 1.72101 29.9905C1.72101 14.1367 14.6177 1.22098 30.4905 1.22098C46.3442 1.22098 59.26 14.1176 59.26 29.9905C59.2409 45.8442 46.3633 58.7599 30.4905 58.7599ZM30.4905 1.83147C14.9611 1.83147 2.35058 14.461 2.35058 29.9905C2.35058 45.5008 14.9802 58.1304 30.4905 58.1304C46.0008 58.1304 58.6304 45.5008 58.6304 29.9905C58.6304 14.461 46.0008 1.83147 30.4905 1.83147Z" fill="#6BACDF"/>
<path d="M6.49044 29.3418L6.01349 29.4563L5.87994 28.9603L6.68122 28.7313H7.08185V31.5358H6.49044V29.3418Z" fill="#6BACDF"/>
<path d="M7.78778 30.7536C7.78778 30.4102 7.9404 30.2194 8.24565 30.0859C8.01672 29.9523 7.90225 29.7806 7.90225 29.4754V29.4563C7.90225 29.0366 8.30288 28.6932 8.87522 28.6932C9.46664 28.6932 9.84819 29.0366 9.84819 29.4563V29.4754C9.84819 29.7615 9.71465 29.9523 9.50479 30.0859C9.79096 30.2385 9.96266 30.4102 9.96266 30.7536V30.7727C9.96266 31.2878 9.50479 31.593 8.8943 31.593C8.28381 31.593 7.78778 31.2496 7.78778 30.7727V30.7536ZM9.33309 30.7154C9.33309 30.4865 9.12323 30.372 8.85614 30.372C8.56997 30.372 8.3792 30.5056 8.3792 30.7154C8.3792 30.9062 8.5509 31.0588 8.85614 31.0588C9.16139 31.0588 9.33309 30.9062 9.33309 30.7154ZM9.25678 29.5517C9.25678 29.38 9.10416 29.2083 8.85614 29.2083C8.60813 29.2083 8.45551 29.3609 8.45551 29.5326V29.5517C8.45551 29.7425 8.60813 29.8951 8.85614 29.8951C9.08508 29.8951 9.25678 29.7425 9.25678 29.5517Z" fill="#6BACDF"/>
<path d="M52.0103 30.372C51.8577 30.4865 51.686 30.5628 51.438 30.5628C50.8466 30.5628 50.446 30.2194 50.446 29.6661V29.647C50.446 29.0938 50.8847 28.6741 51.5143 28.6741C51.8959 28.6741 52.1057 28.7695 52.3156 28.9793C52.5254 29.1892 52.6399 29.4753 52.6399 30.0286V30.0477C52.6399 30.9634 52.2202 31.5739 51.4189 31.5739C50.9992 31.5739 50.7512 31.4404 50.5032 31.2305L50.8275 30.7536C51.0374 30.9062 51.2091 30.9825 51.438 30.9825C51.8577 30.9825 51.9722 30.5819 52.0103 30.3529V30.372ZM52.0294 29.647C52.0294 29.399 51.8577 29.2083 51.5525 29.2083C51.2472 29.2083 51.0755 29.38 51.0755 29.628V29.647C51.0755 29.8951 51.2663 30.0668 51.5525 30.0668C51.8386 30.0477 52.0294 29.876 52.0294 29.647Z" fill="#6BACDF"/>
<path d="M54.6049 30.9253H53.2504L53.155 30.4865L54.6812 28.7122H55.1963V30.4293H55.5779V30.9253H55.1963V31.5167H54.6049V30.9253ZM54.6049 30.4293V29.5708L53.8609 30.4293H54.6049Z" fill="#6BACDF"/>
<path d="M30.4905 47.4277C20.8752 47.4277 13.0533 39.6057 13.0533 29.9905C13.0533 20.3752 20.8752 12.5533 30.4905 12.5533C40.1057 12.5533 47.9277 20.3752 47.9277 29.9905C47.9277 39.6057 40.1057 47.4277 30.4905 47.4277ZM30.4905 13.221C21.2377 13.221 13.7019 20.7568 13.7019 30.0095C13.7019 39.2623 21.2377 46.7981 30.4905 46.7981C39.7433 46.7981 47.279 39.2623 47.279 30.0095C47.279 20.7568 39.7433 13.221 30.4905 13.221Z" fill="white"/>
<path fill-rule="evenodd" clip-rule="evenodd" d="M30.1661 14.9762C21.562 14.9762 16.6018 16.1018 16.6018 16.1018C16.6018 16.1018 14.6177 23.6375 15.7433 33.291C16.2202 37.3545 19.5016 46.0541 30.4332 49.0493C41.3649 46.0731 44.6654 37.3545 45.1232 33.291C46.2488 23.6185 44.2647 16.1018 44.2647 16.1018C44.2647 16.1018 39.3045 14.9762 30.7003 14.9762H30.1471H30.1661Z" fill="#00285D"/>
<path fill-rule="evenodd" clip-rule="evenodd" d="M43.6351 31.0588C43.5398 33.9968 43.0819 42.7536 30.4332 47.5612C17.899 42.8681 17.2313 33.8061 17.2313 31.0588H43.6351Z" fill="#97C1E6"/>
<path fill-rule="evenodd" clip-rule="evenodd" d="M43.2536 30.5819C43.597 23.3132 42.3569 17.4372 42.3569 17.4372C42.3569 17.4372 37.6447 16.5215 30.4523 16.5215C23.2409 16.5215 18.4523 17.5135 18.4523 17.5135C18.4523 17.5135 17.155 23.4277 17.4984 30.5628H43.2536V30.5819Z" fill="white"/>
<path d="M30.8339 47.3132L17.4984 31.1924C17.0215 34.5119 19.7114 44.318 30.8339 47.3132Z" fill="#6BACDF"/>
<path d="M21.4666 31.0779L33.81 45.9778C35.0501 45.3863 35.9849 44.7949 36.8625 44.089L26.0835 31.0779H21.4666Z" fill="#6BACDF"/>
<path d="M30.0517 31.097L39.1709 42.1049C40.0676 41.0938 40.8307 40.1781 41.3649 39.2051L34.6494 31.097H30.0326H30.0517Z" fill="#6BACDF"/>
<path d="M43.4253 31.097L38.8657 31.0779L42.6812 35.6948C43.349 34.283 43.4062 31.8792 43.4062 31.097H43.4253Z" fill="#6BACDF"/>
<path d="M35.8323 37.1256C35.7941 37.0302 35.7178 36.9348 35.6034 36.8966L34.8402 36.6296C34.7639 36.5914 34.7067 36.6105 34.6304 36.6296C34.5732 36.3625 34.4205 36.1335 34.2107 35.9618C34.1725 35.9428 34.1534 35.9237 34.1153 35.9046C34.0771 35.8664 34.0199 35.8474 33.9627 35.8092C33.8673 35.7711 33.7528 35.7329 33.6765 35.7138C33.4476 35.6375 33.2377 35.5612 32.9515 35.3704C32.6844 35.1796 32.57 35.0079 32.4555 34.8362C32.4174 34.7981 32.3983 34.7599 32.3601 34.7218C32.2838 34.6073 32.1884 34.4928 32.0739 34.4165C31.8832 34.283 31.6542 34.2067 31.4062 34.2067C31.349 34.2067 31.3108 34.2257 31.2536 34.2257V34.2067C31.2727 34.1113 31.2345 34.0159 31.1964 33.9396L30.7194 33.31C30.6431 33.2146 30.5477 33.1574 30.4332 33.1574C30.3188 33.1574 30.2043 33.1955 30.1471 33.2909L29.6511 33.9205C29.5938 33.9968 29.5557 34.0922 29.5747 34.2067C29.5366 34.2067 29.4984 34.1876 29.4603 34.1876C29.2313 34.1876 28.9833 34.2639 28.7925 34.3974C28.7544 34.4165 28.7353 34.4356 28.7162 34.4547C28.6781 34.4928 28.6208 34.531 28.5827 34.5882C28.5064 34.6836 28.4491 34.7408 28.3919 34.8362C28.2393 35.027 28.1248 35.1987 27.8387 35.4086C27.5716 35.5994 27.3617 35.6566 27.1709 35.7138C27.1328 35.7329 27.0755 35.752 27.0374 35.752C26.9038 35.7901 26.7703 35.8474 26.6558 35.9237C26.4269 36.0763 26.2743 36.3434 26.217 36.6105C26.1407 36.5723 26.0644 36.5723 25.969 36.5914L25.225 36.8394C25.1296 36.8776 25.0342 36.9539 24.996 37.0683C24.9579 37.1637 24.977 37.2973 25.0342 37.3736L25.4921 38.0413C25.5493 38.1176 25.6256 38.1558 25.721 38.1939C25.6065 38.442 25.5684 38.7472 25.6638 39.0143C25.6829 39.0525 25.7019 39.0715 25.7019 39.1097C25.721 39.1669 25.7401 39.2242 25.7973 39.2814C25.8546 39.3768 25.9118 39.4531 25.969 39.5294C26.1216 39.7202 26.2552 39.8919 26.3506 40.2353C26.446 40.5405 26.446 40.7504 26.446 40.9602V41.1129C26.4269 41.2655 26.446 41.399 26.5032 41.5135C26.5986 41.7806 26.7894 41.9904 26.9992 42.124C26.9611 42.1812 26.942 42.2385 26.9611 42.2957V43.0779C26.9611 43.1924 27.0183 43.3068 27.1137 43.3641C27.2091 43.4213 27.3236 43.4594 27.4189 43.4213L28.2011 43.1924C28.2774 43.1733 28.3156 43.116 28.3538 43.0779C28.5827 43.3068 28.907 43.4022 29.2123 43.3831C29.2695 43.3831 29.3267 43.3641 29.403 43.345C29.4984 43.3068 29.6129 43.2877 29.6892 43.2496C29.9181 43.1733 30.128 43.097 30.4714 43.097C30.7957 43.097 30.9865 43.1733 31.1964 43.2305C31.2345 43.2496 31.2918 43.2687 31.3299 43.2687C31.4635 43.3259 31.6161 43.345 31.7496 43.345C32.0358 43.345 32.3029 43.2305 32.5127 43.0397C32.5509 43.097 32.6081 43.1351 32.6654 43.1542L33.4285 43.3831C33.5239 43.4213 33.6574 43.4022 33.7528 43.345C33.8482 43.2877 33.9054 43.1924 33.9054 43.0588L33.9245 42.2766C33.9245 42.2194 33.9054 42.1621 33.8863 42.1049C34.1153 41.9714 34.3061 41.7615 34.3824 41.4944C34.4015 41.4563 34.4015 41.4372 34.4205 41.399C34.4396 41.3418 34.4587 41.2846 34.4587 41.2083C34.4778 41.1129 34.4778 40.9984 34.4778 40.903C34.4778 40.6741 34.4778 40.4451 34.5732 40.1208C34.6685 39.8156 34.8021 39.6439 34.9166 39.4912C34.9547 39.4531 34.9738 39.4149 35.0119 39.3768C35.1073 39.2814 35.1646 39.1478 35.2218 39.0143C35.3172 38.7281 35.279 38.4229 35.1455 38.1558C35.2218 38.1176 35.279 38.0986 35.3172 38.0413L35.7941 37.3927C35.8705 37.3164 35.8895 37.221 35.8514 37.1065L35.8323 37.1256Z" fill="#00285D"/>
<path d="M30.0326 38.8426C30.0326 38.5946 30.2424 38.4038 30.4905 38.4038C30.7385 38.4038 30.9483 38.6137 30.9483 38.8426C30.9483 39.0906 30.7385 39.2814 30.4905 39.2814C30.2424 39.2814 30.0326 39.0715 30.0326 38.8426Z" fill="#FFC657"/>
<path d="M30.4714 35.0652C30.3951 34.779 30.2234 34.5501 29.9944 34.4165L30.4714 33.8251L30.9102 34.4165C30.6812 34.5692 30.5477 34.779 30.4714 35.0652ZM26.8847 37.6789C26.6558 37.5262 26.4841 37.3164 26.4078 37.0684L25.7019 37.2973L26.1216 37.9078C26.3315 37.7552 26.5986 37.6789 26.8847 37.6789ZM28.2774 41.8188C28.0485 41.9905 27.8005 42.0859 27.5334 42.0859V42.8299L28.2583 42.601C28.163 42.372 28.163 42.0859 28.2774 41.8188ZM32.6653 41.8379C32.7607 42.1049 32.7607 42.372 32.6844 42.62L33.4094 42.849L33.4285 42.1049C33.1804 42.124 32.9134 42.0286 32.6844 41.8569L32.6653 41.8379ZM34.0199 37.6979C34.306 37.6789 34.5541 37.7552 34.7639 37.9269L35.2027 37.3355L34.4777 37.0875C34.4205 37.3164 34.2488 37.5644 34.0008 37.717L34.0199 37.6979ZM29.5556 41.8569C29.2122 41.8569 28.9642 41.5898 28.9642 41.2655C28.9642 41.2274 28.9261 41.2083 28.8879 41.2274C28.659 41.4945 28.5064 41.7234 28.4873 42.0096C28.4682 42.4102 28.8307 42.7536 29.2504 42.7536H29.3267C29.3649 42.7536 29.403 42.7536 29.4603 42.7345C29.7464 42.6582 30.0135 42.5056 30.5095 42.5056C30.9292 42.5056 31.1582 42.62 31.368 42.6773C31.4634 42.7154 31.5588 42.7345 31.6542 42.7345C32.0739 42.7345 32.4173 42.3911 32.4173 41.9905C32.4173 41.7043 32.2456 41.4754 32.0167 41.2083C31.9976 41.1701 31.9595 41.2083 31.9595 41.2464C31.9595 41.5708 31.6733 41.8379 31.368 41.8379C31.12 41.8379 30.7957 41.6089 30.4714 41.6089C30.1852 41.6089 29.8037 41.8379 29.5556 41.8379V41.8569ZM29.155 41.0366C29.155 41.3228 29.3839 41.5326 29.651 41.5326C29.6892 41.5326 29.7083 41.5326 29.7464 41.5135C29.7655 41.5135 29.7846 41.5135 29.7846 41.4945H29.8037C29.9754 41.4372 30.1471 41.3609 30.4523 41.3609C30.7575 41.3609 30.9102 41.4563 31.0819 41.4945C31.1391 41.5135 31.1963 41.5326 31.2536 41.5326C31.5397 41.5326 31.7496 41.3037 31.7496 41.0366C31.7496 40.9603 31.7305 40.884 31.7114 40.8267C31.6924 40.7886 31.6733 40.7695 31.6733 40.7504C31.6733 40.7504 30.8148 39.5867 30.7957 39.5676C30.7575 39.5103 30.7003 39.5294 30.6622 39.5485C30.624 39.5676 30.5095 39.5867 30.4332 39.5867C30.3569 39.5867 30.2806 39.5676 30.2234 39.5485C30.1661 39.5103 30.128 39.5103 30.0898 39.5676C30.0517 39.6057 29.4412 40.4452 29.2504 40.7123C29.1741 40.8076 29.1359 40.903 29.1359 41.0366H29.155ZM33.066 40.655C32.9706 40.9793 32.6272 41.132 32.3029 41.0366C32.2647 41.0175 32.2265 41.0557 32.2647 41.0938C32.4555 41.38 32.6081 41.6089 32.8943 41.7043C33.2949 41.8379 33.7337 41.6089 33.8482 41.2274C33.8672 41.1892 33.8672 41.1892 33.8672 41.151C33.8863 41.1129 33.8863 41.0747 33.9054 41.0366C33.9436 40.7313 33.8672 40.4452 34.0199 39.9682C34.1534 39.5676 34.3251 39.3959 34.4587 39.2051C34.5159 39.1288 34.5731 39.0525 34.6113 38.9571C34.7448 38.5565 34.5159 38.1177 34.1343 38.0032C33.8482 37.9078 33.5811 38.0223 33.2568 38.1367C33.2186 38.1558 33.2186 38.1749 33.2758 38.194C33.6002 38.2894 33.7719 38.6328 33.6765 38.9571C33.6002 39.186 33.2949 39.434 33.1995 39.7393C33.1041 39.9873 33.1995 40.407 33.1041 40.655H33.066ZM32.1502 40.7695C32.4173 40.8649 32.7035 40.7123 32.7989 40.4452C32.818 40.407 32.818 40.3879 32.818 40.3498V40.2925C32.818 40.1208 32.7798 39.9301 32.8752 39.6439C32.9706 39.3577 33.1041 39.2242 33.1995 39.0906C33.2377 39.0525 33.2568 38.9952 33.2949 38.938C33.3903 38.6709 33.2377 38.4038 32.9706 38.3084C32.8943 38.2894 32.818 38.2703 32.7607 38.2894C32.7226 38.2894 32.7035 38.2894 32.6653 38.3084C32.6653 38.3084 31.2917 38.7472 31.2536 38.7663C31.1963 38.8045 31.1963 38.8617 31.1963 38.8808C31.1963 38.9189 31.1773 39.0334 31.1582 39.1097C31.1391 39.1669 31.101 39.2623 31.0628 39.3005C31.0246 39.3386 30.9865 39.3959 31.0246 39.434C31.0628 39.4722 31.6542 40.3116 31.8641 40.5787C31.9404 40.6741 32.0358 40.7504 32.1502 40.8076V40.7695ZM32.9706 36.9348C33.2568 37.1256 33.314 37.5072 33.1041 37.7743C33.066 37.8124 33.1041 37.8506 33.1423 37.8315C33.4857 37.7361 33.7337 37.6598 33.9245 37.4118C34.1725 37.0684 34.0962 36.6105 33.7719 36.3625C33.7528 36.3434 33.7337 36.3243 33.6955 36.3243C33.6574 36.2862 33.6383 36.2862 33.5811 36.2671C33.2949 36.1526 33.0087 36.1145 32.6081 35.8283C32.2647 35.5803 32.1502 35.3514 32.0167 35.1606C31.9785 35.0843 31.9022 35.008 31.8068 34.9317C31.4634 34.6836 30.9865 34.76 30.7575 35.0843C30.6049 35.3132 30.6049 35.6185 30.6049 35.9428C30.6049 35.9809 30.6431 35.9809 30.6622 35.9428C30.8529 35.6757 31.2345 35.6185 31.5207 35.8092C31.7305 35.9619 31.8641 36.3243 32.1121 36.496C32.341 36.725 32.7798 36.7631 32.9897 36.9158L32.9706 36.9348ZM32.818 37.8506C32.9706 37.6216 32.9324 37.3164 32.7035 37.1447C32.6844 37.1256 32.6653 37.1065 32.6081 37.0875C32.589 37.0875 32.5699 37.0684 32.5699 37.0684H32.5509C32.3792 37.0111 32.2075 36.973 31.9595 36.8013C31.7114 36.6296 31.6351 36.4579 31.5397 36.3243C31.5016 36.2862 31.4634 36.229 31.4253 36.1908C31.1963 36.0382 30.8911 36.0763 30.7194 36.3053C30.6812 36.3625 30.6431 36.4197 30.624 36.496C30.624 36.5342 30.6049 36.5533 30.6049 36.5914V38.0795C30.6049 38.1558 30.6622 38.1558 30.7003 38.1749C30.7385 38.194 30.8529 38.2321 30.8911 38.2703C30.9483 38.3084 31.0056 38.3657 31.0437 38.4229C31.0819 38.4611 31.101 38.5183 31.1582 38.4801C31.2154 38.442 32.2075 38.1367 32.5127 38.0414C32.6463 38.0223 32.7417 37.946 32.818 37.8696V37.8506ZM29.403 35.8855C29.6701 35.6948 30.0517 35.752 30.2615 36.0191C30.2997 36.0572 30.3378 36.0572 30.3378 36C30.3569 35.6566 30.3569 35.3704 30.1852 35.1415C29.9563 34.7981 29.4603 34.7218 29.1359 34.9889C29.0978 35.008 29.0978 35.027 29.0787 35.027C29.0405 35.0461 29.0215 35.0652 28.9833 35.1224C28.7734 35.3514 28.659 35.6185 28.2583 35.9046C27.9149 36.1526 27.6669 36.1908 27.4571 36.248C27.3617 36.2862 27.2663 36.3053 27.19 36.3625C26.8466 36.6105 26.7703 37.0875 27.0374 37.4118C27.2091 37.6407 27.4952 37.7361 27.8196 37.8315C27.8577 37.8506 27.8577 37.7933 27.8577 37.7743C27.6669 37.5072 27.7242 37.1256 27.9913 36.9348C28.2011 36.7822 28.5827 36.7822 28.8498 36.5914C29.0596 36.4388 29.2504 36.0382 29.4412 35.8855H29.403ZM30.2234 36.3243C30.0707 36.0954 29.7464 36.0382 29.5175 36.2099C29.4793 36.229 29.4793 36.248 29.4412 36.2671L29.403 36.3053C29.3076 36.4579 29.2122 36.6105 28.9642 36.7822C28.7162 36.9539 28.5445 36.973 28.3728 37.0493C28.3156 37.0684 28.2583 37.0875 28.2202 37.1256C27.9913 37.2782 27.934 37.6026 28.1057 37.8315C28.1439 37.8887 28.2011 37.9269 28.2583 37.965C28.2965 37.9841 28.2965 38.0032 28.3347 38.0032C28.3347 38.0032 29.7083 38.442 29.7464 38.4611C29.8227 38.4801 29.8418 38.4229 29.8609 38.4038C29.899 38.3657 29.9563 38.2894 30.0135 38.2512C30.0707 38.2131 30.1471 38.1749 30.2043 38.1558C30.2615 38.1367 30.2997 38.1177 30.2997 38.0604V36.6487C30.3188 36.5533 30.2806 36.4197 30.2043 36.3243H30.2234ZM27.2854 38.938C27.19 38.6137 27.3617 38.2703 27.6669 38.1749C27.7051 38.1558 27.7051 38.1177 27.686 38.0986C27.3617 37.9841 27.0946 37.8696 26.8275 37.965C26.4269 38.0795 26.217 38.5183 26.3506 38.9189C26.3506 38.9571 26.3696 38.9571 26.3887 38.9952C26.4078 39.0334 26.4269 39.0716 26.4459 39.1097C26.5986 39.3768 26.8275 39.5676 26.9801 40.0445C27.1137 40.4452 27.0755 40.6932 27.0755 40.9221C27.0564 41.0175 27.0755 41.1129 27.1137 41.2083C27.2472 41.6089 27.6669 41.8188 28.0676 41.6852C28.3537 41.5898 28.5064 41.3609 28.6971 41.0747C28.7162 41.0366 28.6781 41.0175 28.659 41.0366C28.3347 41.132 27.9913 40.9603 27.8959 40.655C27.8196 40.4261 27.934 40.0636 27.8196 39.7393C27.7242 39.4531 27.3998 39.1479 27.3235 38.9189L27.2854 38.938ZM27.9531 38.3084C27.686 38.4038 27.5334 38.6709 27.6288 38.938C27.6288 38.9762 27.6479 38.9952 27.6669 39.0334C27.686 39.0525 27.686 39.0716 27.7051 39.0716C27.7051 39.0716 27.7051 39.0906 27.7242 39.0906C27.8196 39.2433 27.9531 39.3768 28.0676 39.6439C28.163 39.9301 28.1248 40.1018 28.1439 40.2735C28.1439 40.3307 28.1439 40.3879 28.182 40.4452C28.2774 40.7123 28.5445 40.8458 28.8116 40.7695C28.8879 40.7504 28.9451 40.7123 28.9833 40.6741C29.0024 40.655 29.0215 40.6359 29.0405 40.6169C29.0405 40.6169 29.899 39.4531 29.899 39.415C29.9372 39.3577 29.899 39.3196 29.8609 39.2814C29.8227 39.2433 29.7655 39.1669 29.7655 39.0906C29.7464 39.0334 29.7273 38.938 29.7273 38.8808C29.7273 38.8235 29.7273 38.7854 29.6701 38.7663C29.6129 38.7472 28.6208 38.4229 28.3156 38.3275C28.2011 38.2894 28.0866 38.2894 27.9531 38.3275V38.3084Z" fill="#ED3123"/>
<path d="M34.6876 23.3514L37.7782 22.283C37.7782 22.283 37.5111 23.5803 37.5875 24.5723C37.6828 25.8696 38.4269 26.8426 38.4269 26.8426L34.6113 28.159L34.6876 23.3514Z" fill="#FFC657"/>
<path d="M38.4269 26.8426C38.4269 26.8426 37.7591 25.8696 37.6447 24.744C37.5493 23.8855 37.6447 23.1606 37.7973 22.283C37.6638 22.8744 37.1677 24.5151 35.775 26.0604C35.2218 26.6709 34.9738 27.2242 34.8593 27.6057L34.8021 20.318C34.8021 20.318 34.0771 20.5851 34.0008 20.6041C33.9054 20.6423 33.8673 20.6995 33.8673 20.6995C33.8673 20.7377 33.8291 20.7758 33.7719 20.7949C33.7146 20.814 33.2949 20.9666 32.9897 21.062C32.9324 21.0811 32.9515 21.1383 32.9897 21.1383C33.3331 21.1192 33.8482 21.0811 33.8863 21.0811C33.9626 21.062 33.9817 21.0429 33.9817 20.9857V20.9666C34.0008 20.9094 34.039 20.8712 34.0962 20.8712C34.1343 20.8712 34.4014 20.8331 34.5731 20.814L34.4968 28.655H34.8402V28.1017L38.4078 26.8617L38.4269 26.8426Z" fill="#D4A11D"/>
<path d="M24.7289 28.3498C24.7289 28.3498 24.1566 27.93 24.004 27.1288C23.8514 26.3084 24.252 25.8315 24.252 25.8315L28.0103 24.5342C28.0103 24.5342 27.7814 25.2782 27.9913 26.1367C28.2774 27.2051 28.8498 27.93 28.8498 27.93C28.8498 27.93 27.4762 27.663 26.1407 27.8347C24.8816 27.9873 24.748 28.3498 24.748 28.3498H24.7289Z" fill="#FFC657"/>
<path d="M20.4174 27.4149C20.4174 27.4149 20.8943 26.1367 22.2488 24.744C23.2981 23.6947 23.9658 23.3895 23.9658 23.3895C23.9658 23.3895 23.3744 24.248 23.1073 25.6788C22.9547 26.5564 23.1264 27.6629 23.1264 27.6629C23.1264 27.6629 22.4205 27.5103 21.6193 27.434C20.9515 27.3577 20.4174 27.4149 20.4174 27.4149Z" fill="#FFC657"/>
<path d="M23.9658 23.3895C23.9658 23.3895 23.3744 24.248 23.1264 25.6788C22.9737 26.5564 23.1454 27.6629 23.1454 27.6629C23.1454 27.6629 22.9737 27.6248 22.554 27.5294C20.8752 27.1478 23.9658 23.3895 23.9658 23.3895Z" fill="#D4A11D"/>
<path d="M26.1597 24.4197L26.1216 21.0429C26.0453 21.0811 25.3966 21.291 25.3203 21.3291C25.2249 21.3673 25.1868 21.4245 25.1868 21.4436C25.1868 21.4817 25.1486 21.5199 25.0914 21.539C25.0342 21.558 24.6144 21.6916 24.3092 21.8061C24.252 21.8251 24.271 21.8824 24.3092 21.8824C24.6526 21.8633 25.1677 21.8251 25.2059 21.8251C25.2822 21.8061 25.3012 21.787 25.3203 21.7297V21.7107C25.3394 21.6534 25.3776 21.6153 25.4348 21.6153C25.4729 21.6153 25.721 21.5771 25.9117 21.5771L25.8736 24.4388H26.1407V24.4197H26.1597Z" fill="#D4A11D"/>
<path d="M30.5286 21.3672H30.7957V18.124C30.7957 18.124 30.0708 18.3911 29.9945 18.4102C29.8991 18.4483 29.8609 18.5056 29.8609 18.5056C29.8609 18.5437 29.8228 18.5819 29.7655 18.6009C29.7083 18.62 29.2886 18.7536 28.9833 18.868C28.9261 18.8871 28.9452 18.9443 28.9833 18.9443C29.3267 18.9253 29.8418 18.8871 29.88 18.8871C29.9563 18.868 29.9754 18.849 29.9945 18.7917C30.0135 18.7345 30.0517 18.6963 30.1089 18.6963C30.1471 18.6963 30.3951 18.6582 30.5668 18.6582L30.5286 21.3863V21.3672Z" fill="#D4A11D"/>
<path d="M29.8609 18.8871H29.88C29.9563 18.8681 29.9754 18.849 29.9754 18.7917C29.9754 18.7536 30.0135 18.7154 30.0517 18.6964L29.9563 18.4102C29.8609 18.4483 29.8418 18.5056 29.8418 18.5056C29.8418 18.5437 29.8037 18.5628 29.7655 18.5819L29.8609 18.8681V18.8871Z" fill="#FFC657"/>
<path d="M25.2059 21.787H25.2249C25.3013 21.7679 25.3203 21.7488 25.3203 21.6916C25.3394 21.6534 25.3585 21.6153 25.3966 21.5962L25.3013 21.31C25.2059 21.3482 25.1868 21.4054 25.1868 21.4054C25.1868 21.4436 25.1486 21.4627 25.1105 21.4817L25.2059 21.7679V21.787Z" fill="#FFC657"/>
<path d="M33.8482 21.062H33.8672C33.9436 21.0429 33.9626 21.0238 33.9626 20.9666C33.9817 20.9285 34.0008 20.8903 34.0389 20.8712L33.9436 20.5851C33.8482 20.6232 33.8291 20.6804 33.8291 20.6804C33.8291 20.7186 33.7909 20.7377 33.7528 20.7568L33.8482 21.0429V21.062Z" fill="#FFC657"/>
<path d="M28.8307 27.93C28.8307 27.93 28.2393 27.0525 27.9913 26.1176C27.7814 25.3164 27.9913 24.5533 27.9913 24.5533C27.9913 24.5533 27.5906 25.9269 26.6367 26.6709C25.969 27.2051 24.3474 27.682 24.7289 28.3498C24.7862 28.2544 24.9579 28.0827 25.6065 27.93C25.6828 27.911 25.7592 27.8919 25.8545 27.8919V28.9984H26.1979V27.8347C27.4189 27.7011 28.8116 27.93 28.8116 27.93H28.8307Z" fill="#D4A11D"/>
<path d="M24.3283 25.6025C24.3283 25.6025 23.8895 25.3354 23.9467 24.496C24.004 23.6184 24.4428 23.2369 24.4428 23.1987L27.3617 22.2067C27.3617 22.2067 27.1327 22.6455 27.3044 23.3132C27.4762 24.0954 27.9913 24.5532 27.9913 24.5532C27.9913 24.5532 26.5223 24.5723 25.2059 25.0302C24.5572 25.2591 24.3283 25.6216 24.3283 25.6216V25.6025Z" fill="#FFC657"/>
<path d="M26.0644 23.7711C26.9038 23.0842 27.3617 22.2067 27.3617 22.2067C27.3617 22.2067 27.2472 22.7599 27.3235 23.2559C27.4762 24.1145 27.9913 24.5532 27.9913 24.5532C27.9913 24.5532 26.8084 24.5723 25.5302 24.9348C24.6717 25.1637 24.4237 25.5071 24.3474 25.6216C24.0612 24.973 25.225 24.4769 26.0835 23.7711H26.0644Z" fill="#D4A11D"/>
<path d="M29.3839 28.5787C29.3839 28.5787 28.5826 27.9873 28.3919 26.8426C28.2392 25.9459 28.8307 25.2973 28.8307 25.2973L33.3903 23.7329C33.3903 23.7329 33.1423 24.744 33.3712 25.717C33.6383 26.8045 34.6303 28.1399 34.6303 28.1399C34.6303 28.1399 32.7416 27.6057 31.1009 27.7965C29.5365 28.0064 29.3839 28.5596 29.3839 28.5596V28.5787Z" fill="#FFC657"/>
<path d="M28.4682 21.3482C28.4301 20.6614 28.9261 20.1081 28.9452 20.07L32.2075 18.9253C32.2075 18.9253 31.9786 19.4404 32.0549 19.8792C32.1503 20.7186 32.6272 21.1574 32.6272 21.1574C32.6272 21.1574 31.3299 21.0811 29.8227 21.6153C28.9833 21.9014 28.907 22.3021 28.907 22.3021C28.907 22.3021 28.5064 22.2067 28.4873 21.3482H28.4682Z" fill="#FFC657"/>
<path d="M31.0437 20.4706C31.6351 19.9555 32.2075 18.9444 32.2075 18.9444C32.2075 18.9444 31.9785 19.4595 32.0548 19.8983C32.1502 20.7377 32.6272 21.1765 32.6272 21.1765C32.6272 21.1765 31.2345 21.1574 29.899 21.6344C29.3267 21.8442 28.9642 22.1495 28.9261 22.3212C28.7353 21.6725 30.2615 21.1765 31.0628 20.4706H31.0437Z" fill="#D4A11D"/>
<path d="M28.9261 25.1256C28.9261 25.1256 28.4491 24.5914 28.3728 23.7329C28.2774 22.8553 28.7925 22.5119 28.8498 22.4738L32.6272 21.1765C32.6272 21.1765 32.5318 21.4627 32.6081 22.2258C32.7035 22.8744 33.3331 23.752 33.3331 23.752C33.3331 23.752 31.3108 23.8092 30.0708 24.2862C29.2886 24.5914 28.9452 25.1447 28.9452 25.1447L28.9261 25.1256Z" fill="#FFC657"/>
<path d="M31.4444 22.9317C32.2647 22.2258 32.6272 21.1765 32.6272 21.1765C32.6272 21.1765 32.5318 21.7679 32.6272 22.2448C32.818 23.0652 33.4094 23.752 33.4094 23.752C33.4094 23.752 31.6542 23.7902 30.376 24.2099C29.5366 24.496 29.0215 24.9921 28.9643 25.1256C28.7735 24.4006 30.6431 23.6375 31.4635 22.9317H31.4444Z" fill="#D4A11D"/>
<path d="M34.7067 28.2162C34.7067 28.2162 33.6765 26.8808 33.3712 25.717C33.1804 24.9348 33.3331 24.0572 33.3903 23.752C33.2758 24.1717 32.8561 25.4881 31.845 26.442C30.872 27.3386 28.9833 27.7583 29.3839 28.5978C29.4602 28.4642 29.6701 28.1399 30.4523 27.9491L30.4332 29.0175H30.7957V27.8728C32.4746 27.6057 34.6876 28.2162 34.6876 28.2162H34.7067Z" fill="#D4A11D"/>
<path fill-rule="evenodd" clip-rule="evenodd" d="M36.4619 30.7345C36.6908 30.6964 36.9388 30.6391 37.2822 30.5437C37.2631 30.5247 37.2441 30.5056 37.225 30.5056C36.8434 30.0859 36.9007 29.628 37.1296 29.3991C37.9881 28.6169 37.969 28.0254 37.969 28.0254C37.969 28.0254 35.9086 28.4452 33.1805 28.5978C33.0088 28.6169 32.3792 28.884 32.1884 28.884C31.8069 28.903 31.4253 28.9221 31.0247 28.9221C25.8927 28.9603 24.4428 28.5978 22.7639 28.2925C21.0469 27.9682 20.3029 27.6248 20.3029 27.6248L20.2456 27.7965C20.2456 27.7965 21.6002 28.3307 22.5541 28.7886C22.7639 28.884 23.5652 30.0859 23.8323 30.5056H17.7274C17.384 23.504 18.7385 17.7806 18.7385 17.7806C18.7385 17.7806 23.4126 16.7886 30.4332 16.7886V16.0445C22.9738 16.0445 18.0135 17.0938 18.0135 17.0938C18.0135 17.0938 15.8386 24.744 16.9833 33.8442C17.4603 37.6407 20.6081 44.7377 30.3951 48.0382L30.8148 47.4468L30.3951 46.8553C21.1614 43.7647 18.4714 37.5072 17.9945 33.9587C17.8991 33.1765 17.8227 32.3752 17.7655 31.6121H30.4332V30.5437H23.9277C24.0803 30.0668 24.5191 29.9523 25.0914 30.0859C25.6828 30.2385 26.2552 30.372 26.8275 30.353C28.2202 30.2766 28.0103 29.9142 28.1439 29.9142C29.5747 30.0095 30.128 30.353 31.3681 30.3148C32.5127 30.2957 32.9134 29.9905 33.0088 29.9905C34.4014 29.9714 34.9356 30.62 36.3283 30.7345H36.4428H36.4619Z" fill="#FFC657"/>
<path fill-rule="evenodd" clip-rule="evenodd" d="M42.853 17.0938C42.853 17.0938 37.8927 16.0445 30.4523 16.0445V16.7886C37.4921 16.7886 42.1471 17.7806 42.1471 17.7806C42.1471 17.7806 43.5016 23.504 43.1582 30.5056H37.0342C36.5573 30.0286 36.8243 29.4181 36.996 29.2846C37.721 28.6359 37.721 28.1971 37.721 28.1971C37.721 28.1971 36.0612 28.6169 33.3331 28.7313C33.1614 28.7313 32.3983 29.0747 32.2075 29.0747C31.8259 29.0938 31.2918 29.1129 30.9102 29.1129C27.3617 29.1129 25.6256 29.0366 22.5541 28.3879C22.6113 28.4642 22.6495 28.4833 22.7067 28.5787C22.7258 28.6169 24.0612 28.9412 24.0612 28.9793C24.2711 29.2655 24.5382 29.4563 24.8434 29.628C25.3395 29.8951 26.0644 30.1049 26.6749 30.1622C28.0676 30.2576 27.8005 29.7234 27.934 29.7234C29.3458 29.6852 30.2806 30.2003 31.5207 30.2003C32.6654 30.1812 32.6844 29.8188 32.818 29.8188C33.9436 29.7615 35.0883 30.2385 36.0612 30.5628H30.4714V31.6312H43.101C43.0437 32.4134 42.9674 33.1765 42.872 33.9778C42.3951 37.5453 39.7051 43.7838 30.4714 46.8744V48.0763C40.2774 44.7758 43.4253 37.6979 43.8832 33.8824C45.0469 24.7631 42.872 17.132 42.872 17.132L42.853 17.0938Z" fill="#D4A11D"/>
<path d="M7.55884 20.3943L8.07394 19.4022L10.3824 19.2496L9.21862 17.2464L9.73372 16.2734L13.8355 18.4483L13.3776 19.3259L10.6876 17.9332L11.8323 20.0127L11.8132 20.0318L9.48571 20.2607L12.1375 21.6725L11.6797 22.5501L7.55884 20.3943Z" fill="#00285D"/>
<path d="M12.2711 13.0684L12.9197 12.3816L17.6892 14.1367L16.9642 14.9189L15.9149 14.5183L14.5604 15.9491L15.0374 16.9793L14.3124 17.7425L12.2711 13.0874V13.0684ZM15.0183 14.1749L13.492 13.5835L14.1598 15.0715L15.0183 14.1749Z" fill="#00285D"/>
<path d="M15.9531 9.69157L16.7544 9.19554L20.1121 10.5119L18.624 8.06995L19.5016 7.53577L21.9054 11.504L21.1614 11.9618L17.6892 10.6073L19.2345 13.1447L18.376 13.6598L15.9531 9.69157Z" fill="#00285D"/>
<path d="M22.2106 8.87122C21.8481 7.57392 22.4968 6.25754 23.8704 5.87599C24.7098 5.62797 25.3012 5.7806 25.8354 6.04769L25.4157 6.96343C24.9769 6.73449 24.5763 6.65818 24.1184 6.79172C23.3744 7.02066 23.0119 7.78378 23.2218 8.56597V8.58505C23.4507 9.34816 24.1566 9.82511 24.9197 9.61525C25.4348 9.46263 25.6828 9.17646 25.9499 8.75675L26.7512 9.21462C26.4268 9.84419 26.0071 10.3021 25.1486 10.5501C23.8513 10.9316 22.5731 10.2067 22.2106 8.90937V8.87122Z" fill="#00285D"/>
<path d="M27.7814 5.13195L28.7925 5.11287L28.8497 6.96343L30.7384 6.90619L30.6812 5.07472L31.7114 5.03656L31.8259 9.69157L30.8148 9.72972L30.7575 7.86009L28.8688 7.91732L28.926 9.76788L27.8958 9.80604L27.7814 5.13195Z" fill="#00285D"/>
<path d="M37.7401 10.3211L38.5986 9.90144C38.8275 10.3784 39.1327 10.779 39.6288 11.008C40.0103 11.1797 40.2965 11.1415 40.411 10.8935V10.8744C40.5254 10.6455 40.43 10.4547 39.8195 9.95867C39.0755 9.34818 38.6367 8.85215 39.0183 8.0318V8.01272C39.3617 7.24961 40.2202 7.03975 41.0787 7.42131C41.6892 7.70748 42.128 8.14627 42.3951 8.68045L41.5938 9.1574C41.3458 8.71861 41.0405 8.39428 40.678 8.24166C40.3346 8.08903 40.0676 8.14627 39.9531 8.35613V8.3752C39.8195 8.66137 39.9722 8.83307 40.6208 9.34818C41.3649 9.95867 41.7273 10.5119 41.3649 11.2369V11.256C40.9833 12.0954 40.1248 12.2671 39.209 11.8474C38.5986 11.5231 38.0453 10.9889 37.7401 10.3021V10.3211Z" fill="#00285D"/>
<path d="M44.5318 10.6073L43.4062 9.7488L43.9785 8.98569L47.031 11.3132L46.4587 12.0763L45.3331 11.2178L43.101 14.1558L42.2806 13.5453L44.5318 10.6073Z" fill="#00285D"/>
<path d="M51.8768 17.2083L52.8307 19.116C53.0978 19.6502 53.155 20.1272 53.0215 20.5278C52.907 20.8712 52.6399 21.1574 52.2393 21.3672H52.2202C51.5525 21.7106 50.942 21.558 50.4841 21.1192L49.5111 22.8744L48.9769 21.806L49.8545 20.2416L49.4921 19.5167L48.1566 20.1844L47.6987 19.2687L51.8959 17.1892L51.8768 17.2083ZM50.7703 20.0699C50.9992 20.5087 51.3617 20.6614 51.7051 20.4897H51.7242C52.1248 20.2989 52.182 19.9173 51.9531 19.4785L51.4952 18.5628L50.3124 19.1542L50.7703 20.0699Z" fill="#00285D"/>
<path d="M34.6304 8.26072L36.3474 8.6232L36.8243 7.80285L34.8402 7.36405L35.031 6.44832L37.4539 6.96342L37.6637 6.08583L34.2106 5.3418L33.2377 9.88234L36.7098 10.6455L36.9006 9.74879L34.4205 9.21461L34.6304 8.26072Z" fill="#00285D"/>
<path d="M48.4428 12.7059L44.8752 15.7011L47.1455 18.4102L47.8323 17.8187L46.2297 15.8919L46.9738 15.2623L48.1185 16.6168L49.0342 16.3116L47.6797 14.6709L48.4046 14.0795L49.9881 15.9873L50.694 15.3959L48.4428 12.7059Z" fill="#00285D"/>
<path d="M22.6113 52.3879C22.6113 51.0334 23.6224 49.9269 25.0914 49.9269C25.9881 49.9269 26.5032 50.213 26.961 50.6518L26.2933 51.415C25.9308 51.0716 25.5683 50.8808 25.0723 50.8808C24.271 50.8808 23.6987 51.5485 23.6987 52.3689V52.3879C23.6987 53.1892 24.252 53.876 25.0723 53.876C25.6065 53.876 25.9499 53.6471 26.3124 53.3227L26.9801 53.9905C26.5032 54.5247 25.9499 54.849 25.0342 54.849C23.6415 54.8108 22.6113 53.7425 22.6113 52.3879Z" fill="#00285D"/>
<path d="M27.9913 49.9841H29.0406V54.7154H27.9913V49.9841Z" fill="#00285D"/>
<path d="M31.4634 50.9571H30.0135V49.9841H33.9435V50.9571H32.5127V54.7345H31.4634V50.9571Z" fill="#00285D"/>
<path d="M36.1948 52.8649L34.3824 49.9841H35.6033L36.7289 51.8919L37.8736 49.9841H39.0564L37.244 52.8267V54.7154H36.1948V52.8649Z" fill="#00285D"/>
</g>
<defs>
<clipPath id="clip0_8_542">
<rect width="60" height="60" fill="white" transform="translate(0.5)"/>
</clipPath>
</defs>
</svg>
