<svg width="61" height="60" viewBox="0 0 61 60" fill="none" xmlns="http://www.w3.org/2000/svg">
<path d="M30.5 59.4643C46.7727 59.4643 59.9643 46.2727 59.9643 30C59.9643 13.7273 46.7727 0.535706 30.5 0.535706C14.2273 0.535706 1.03571 13.7273 1.03571 30C1.03571 46.2727 14.2273 59.4643 30.5 59.4643Z" fill="#FDE100"/>
<path d="M30.5 57.3214C45.5892 57.3214 57.8214 45.0892 57.8214 30C57.8214 14.9108 45.5892 2.67856 30.5 2.67856C15.4108 2.67856 3.17859 14.9108 3.17859 30C3.17859 45.0892 15.4108 57.3214 30.5 57.3214Z" stroke="black" stroke-width="1.95"/>
<path d="M21.6714 7.7475L28.9036 30.1179H32.0214L39.1572 7.7475H34.7964L30.4464 22.6821L26.1286 7.7475H21.6714ZM10.4911 18.7607V40.8321H17.4179C23.0322 40.8321 25.8714 34.0393 21.9714 29.85C21.9714 29.85 21.9714 29.8286 21.9714 29.8071C21.9714 29.7857 22.0036 29.775 22.0036 29.775C25.25 26.1214 23.8786 19.6714 17.8572 18.7607H10.4911ZM39.1572 18.7607V40.8321H46.1214C51.725 40.8321 54.5643 34.0393 50.675 29.85C50.675 29.85 50.675 29.8286 50.675 29.8071C50.675 29.7857 50.7072 29.775 50.7072 29.775C53.9429 26.1214 52.5822 19.6714 46.55 18.7607H39.1572ZM14.5464 22.8857H17.9536C20.1714 22.8857 20.6214 27.1286 18.0929 27.8036H14.5464V22.8857ZM43.2714 22.8857H46.6572C48.8643 22.8857 49.325 27.1286 46.7857 27.8036H43.2714V22.8857ZM14.5464 31.7571H17.5572C20.0536 31.7571 20.975 36.3 17.7286 36.9429H14.5464V31.7571ZM43.2714 31.7571H46.25C48.7464 31.7571 49.6679 36.3 46.4214 36.9429H43.2714V31.7571ZM26.1286 41.2929C24.3393 41.2929 22.8822 42.7607 22.8822 44.55V49.4357C22.8822 51.225 24.3393 52.6821 26.1286 52.6821H26.1929C27.9822 52.6821 29.4393 51.225 29.4393 49.4357V44.55C29.4393 42.7607 27.9822 41.2929 26.1929 41.2929H26.1286ZM34.7322 41.2929C32.9429 41.2929 31.4214 42.6857 31.4214 44.475V45.2786C31.4214 47.0679 33.05 48.5143 34.7322 48.5679C34.7322 48.5679 35.4179 48.5571 35.7714 48.3643L35.8036 49.4679C35.8036 50.025 35.3536 50.5178 34.7964 50.5071C34.3464 50.4857 33.725 50.2607 33.725 49.7036C33.725 49.7036 33.8322 48.9643 33.2964 48.9643H31.4214C31.4 49.1464 31.4214 49.2536 31.4214 49.5C31.4214 51.1929 32.8679 52.6821 34.8286 52.6821C36.6822 52.6607 37.9786 51.2464 37.9786 49.4036V44.5071C37.9786 42.7178 36.5857 41.2929 34.7964 41.2929H34.7322ZM34.7643 43.6071C35.3536 43.6071 35.8036 44.0571 35.8036 44.6143V45.2464C35.8036 45.8036 35.3536 46.2536 34.7964 46.2536C34.2072 46.2536 33.725 45.8036 33.725 45.2464V44.6143C33.725 44.0571 34.2072 43.6071 34.7643 43.6071ZM26.1286 43.6393C26.7179 43.6393 27.2 44.0893 27.2 44.6464V49.5C27.2 50.0571 26.7179 50.5071 26.1607 50.5071C25.5714 50.5071 25.1214 50.0571 25.1214 49.5V44.6464C25.1214 44.0893 25.5714 43.6393 26.1286 43.6393Z" fill="black"/>
</svg>
