<?xml version="1.0" encoding="utf-8"?>
<!-- Generator: Adobe Illustrator 25.2.1, SVG Export Plug-In . SVG Version: 6.00 Build 0)  -->
<svg version="1.1" id="Vrstva_1" xmlns="http://www.w3.org/2000/svg" xmlns:xlink="http://www.w3.org/1999/xlink" x="0px" y="0px"
	 viewBox="0 0 925.3 616.9" style="enable-background:new 0 0 925.3 616.9;" xml:space="preserve">
<style type="text/css">
	.st0{fill:#E72A2E;}
	.st1{fill:#013362;}
	.st2{fill:#EDEDED;}
</style>
<g>
	<g>
		<rect class="st0" width="276.9" height="243"/>
		<rect y="373.9" class="st0" width="276.9" height="243"/>
		<rect x="407.9" class="st0" width="517.4" height="243"/>
		<rect x="407.9" y="373.9" class="st0" width="517.4" height="243"/>
	</g>
	<rect x="12.3" y="267.6" class="st1" width="289.3" height="0"/>
	<rect x="12.3" y="349.2" class="st1" width="289.3" height="0"/>
	<rect x="383.2" y="349.2" class="st1" width="529.7" height="0"/>
	<rect x="383.2" y="267.6" class="st1" width="529.7" height="0"/>
	<g>
		<polygon class="st2" points="276.9,243 0,243 0,267.6 12.3,267.6 12.3,267.6 301.6,267.6 301.6,0 276.9,0 		"/>
		<polygon class="st2" points="407.9,243 407.9,0 383.2,0 383.2,267.6 912.9,267.6 912.9,267.6 925.3,267.6 925.3,243 		"/>
		<polygon class="st2" points="912.9,349.2 383.2,349.2 383.2,616.9 407.9,616.9 407.9,373.9 925.3,373.9 925.3,349.2 912.9,349.2 
					"/>
		<polygon class="st2" points="12.3,349.2 0,349.2 0,373.9 276.9,373.9 276.9,616.9 301.6,616.9 301.6,349.2 12.3,349.2 		"/>
	</g>
	<polygon class="st1" points="925.3,267.6 925.3,349.2 383.2,349.2 383.2,616.9 301.6,616.9 301.6,349.2 0,349.2 0,267.6 
		301.6,267.6 301.6,0 383.2,0 383.2,267.6 	"/>
</g>
</svg>
